Coordinates
nRows=8
nColumns=24

# SIMM Motion File Header:
name Coordinates
datacolumns 24
datarows 8
otherdata 1
range 0.91600000000000004000 0.92300000000000004000
endheader
time	pelvis_tx	pelvis_ty	pelvis_tz	pelvis_tilt	pelvis_list	pelvis_rotation	hip_flexion_r	hip_adduction_r	hip_rotation_r	knee_angle_r	ankle_angle_r	subtalar_angle_r	mtp_angle_r	hip_flexion_l	hip_adduction_l	hip_rotation_l	knee_angle_l	ankle_angle_l	subtalar_angle_l	mtp_angle_l	lumbar_extension	lumbar_bending	lumbar_rotation
      0.91600000000000004000	     -0.43927886079440276000	      0.82624337881511323000	     -0.28298478013340761000	     15.05558649957393800000	      5.25749062587294350000	     11.45286611189894200000	      6.39663670744600840000	     -8.28276603121890710000	     -0.37529042248629307000	      8.65149251474409730000	      2.61108020198234310000	     -0.00000000000013079120	      0.00000000000032209053	    -44.06523247052794500000	     -1.69859296259640250000	     11.11157304362507900000	      1.59865834952620060000	      4.57617577814291640000	      0.00000000000034459344	     -0.00000000000035279354	    -25.45069783594269500000	      0.22162771892382677000	    -11.99248067021421900000
      0.91700000000000004000	     -0.43738754620907910000	      0.82596399659946440000	     -0.28307159647429586000	     15.04992922377949300000	      5.21265092125210040000	     11.47560551288254000000	      6.46426496918822300000	     -8.21682110075289880000	     -0.37781358252529379000	      8.44463006508912880000	      2.75733495416328100000	     -0.00000000000013099780	      0.00000000000032153085	    -44.06397014390977100000	     -1.74893954731254910000	     11.07197552481183500000	      1.41731871252244330000	      4.51201257232125830000	      0.00000000000034626635	     -0.00000000000035557109	    -25.41414480295278000000	      0.28573803633559791000	    -11.99815123736195600000
      0.91800000000000004000	     -0.43548866942898279000	      0.82570344050272382000	     -0.28316362400026396000	     15.05037743571062200000	      5.16404420163004120000	     11.50258791843983600000	      6.51891339996710870000	     -8.14515052355629620000	     -0.39791708984145840000	      8.24767842729183620000	      2.80438898653374520000	     -0.00000000000013122086	      0.00000000000032090668	    -44.06484876072728700000	     -1.80638079889184990000	     11.03105321137205600000	      1.22995237771342140000	      4.43896407420466770000	      0.00000000000034797537	     -0.00000000000035830850	    -25.38259631822658900000	      0.35696359963455021000	    -12.00673770833055800000
      0.91900000000000004000	     -0.43358631958298294000	      0.82545074152441900000	     -0.28325672341108976000	     15.05279676502656900000	      5.11407177679038760000	     11.53043874208372300000	      6.56824454961618360000	     -8.07144270840333000000	     -0.42546726257615042000	      8.05731758200914610000	      2.78332520097545190000	     -0.00000000000013145661	      0.00000000000032027980	    -44.06593815795508100000	     -1.86588618997268660000	     10.98906436497586000000	      1.04014748204672070000	      4.35434113017352780000	      0.00000000000034972320	     -0.00000000000036100637	    -25.35257608400630100000	      0.43047642314466250000	    -12.01583454022599200000
      0.92000000000000004000	     -0.43168396973698309000	      0.82519804254611417000	     -0.28334982282191556000	     15.05521609434251400000	      5.06409935195073310000	     11.55828956572760900000	      6.61757569926525770000	     -7.99773489325036200000	     -0.45301743531084249000	      7.86695673672645680000	      2.76226141541715900000	     -0.00000000000013169235	      0.00000000000031965292	    -44.06702755518286800000	     -1.92539158105352340000	     10.94707551857966300000	      0.85034258638002014000	      4.26971818614238870000	      0.00000000000035147104	     -0.00000000000036370423	    -25.32255584978601300000	      0.50398924665477474000	    -12.02493137212142600000
      0.92100000000000004000	     -0.42977140255965091000	      0.82495018526868147000	     -0.28343342824118928000	     15.05368169929114200000	      5.01325406376530850000	     11.57972025656885300000	      6.67304272431009960000	     -7.92268238333237120000	     -0.47993659011944123000	      7.67294757834579410000	      2.65732253060362390000	     -0.00000000000013199799	      0.00000000000031910104	    -44.05867412476187900000	     -1.97986326487930820000	     10.89930216195297100000	      0.65069490425197940000	      4.16274586725395950000	      0.00000000000035337976	     -0.00000000000036660050	    -25.28771849634753400000	      0.57513411068509801000	    -12.02867599497675100000
      0.92200000000000004000	     -0.42785883538231873000	      0.82470232799124876000	     -0.28351703366046299000	     15.05214730423976900000	      4.96240877557988380000	     11.60115094741009800000	      6.72850974935494240000	     -7.84762987341437860000	     -0.50685574492803986000	      7.47893841996513140000	      2.55238364579007060000	     -0.00000000000013230363	      0.00000000000031854915	    -44.05032069434088300000	     -2.03433494870509170000	     10.85152880532627500000	      0.45104722212393661000	      4.05577354836552570000	      0.00000000000035528848	     -0.00000000000036949677	    -25.25288114290905700000	      0.64627897471542073000	    -12.03242061783207500000
      0.92300000000000004000	     -0.42594081699777764000	      0.82445278706704117000	     -0.28359409905481858000	     15.04732968975499400000	      4.91125727954378370000	     11.61849777699653400000	      6.79325581947654290000	     -7.77195694218359720000	     -0.52678922294939579000	      7.26960083313900010000	      2.49771694661980210000	     -0.00000000000013268413	      0.00000000000031803347	    -44.03578618908049700000	     -2.08529522292952900000	     10.80046127734956800000	      0.24549223174241644000	      3.94969813854889470000	      0.00000000000035725156	     -0.00000000000037257148	    -25.21432220419660600000	      0.71541463783270509000	    -12.03276587860536200000
